<svg xmlns="http://www.w3.org/2000/svg" width="1333.333" height="1333.333" preserveAspectRatio="xMidYMid meet" version="1.0" viewBox="0 0 1000 1000"><metadata>Created by potrace 1.11, written by Peter Selinger 2001-2013</metadata><g fill="#000" stroke="none"><path d="M3750 7500 l0 -1250 -1250 0 -1250 0 0 -1250 0 -1250 1250 0 1250 0 0 -1250 0 -1250 1250 0 1250 0 0 1250 0 1250 1250 0 1250 0 0 1250 0 1250 -1250 0 -1250 0 0 1250 0 1250 -1250 0 -1250 0 0 -1250z m1500 -250 l0 -1000 -250 0 -250 0 0 1000 0 1000 250 0 250 0 0 -1000z m-1500 -2250 l0 -250 -1000 0 -1000 0 0 250 0 250 1000 0 1000 0 0 -250z m4500 0 l0 -250 -1000 0 -1000 0 0 250 0 250 1000 0 1000 0 0 -250z m-3000 -2250 l0 -1000 -250 0 -250 0 0 1000 0 1000 250 0 250 0 0 -1000z" transform="translate(0.000000,1000.000000) scale(0.100000,-0.100000)"/></g></svg>